<svg xmlns="http://www.w3.org/2000/svg" width="1599.973" height="975" viewBox="0 -6.995 1599.973 975" enable-background="new 0 -6.995 1599.973 975"><path fill="#B86E64" d="M275.793 579.048"/><path fill="#B86E64" d="M516.13 731.6c-63.44 0-123.432-20.177-169.82-57.282-53.83-43.06-85.018-105.422-90.304-180.486l-.443-.023c1.168-77.766 28.998-143.36 80.482-189.7 45.706-41.138 107.425-64.644 173.787-66.188 66.44-1.533 129.567 19.014 177.717 57.89 52.06 42.04 82.746 102.302 89.036 174.647h.887c0 78.843-27.06 145.515-78.254 192.806-45.383 41.923-107.125 66.142-173.85 68.194-3.09.096-6.17.145-9.245.145l.003-.006zM256.617 490.975l.2.005c4.688 76.02 35.85 139.147 90.114 182.556 48.453 38.758 111.83 58.97 178.41 56.922 66.485-2.047 127.997-26.172 173.202-67.93 49.25-45.494 76.07-109.01 77.84-184.084l-.202.013c-4.657-75.59-35.522-138.48-89.256-181.867-47.963-38.73-110.855-59.213-177.066-57.67-66.124 1.54-127.612 24.955-173.142 65.932-50.64 45.582-78.302 109.896-80.095 186.127v-.004zm-17.21-5.153l-1-.05c3.98-80.43 35.48-147.884 91.085-195.068 49.536-42.03 115.336-65.41 185.278-65.83 70.02-.435 136.16 22.153 186.36 63.57 56.28 46.434 88.63 113.225 93.553 193.152l-1 .062c-4.904-79.647-37.13-146.19-93.19-192.445-50.02-41.266-115.95-63.767-185.717-63.34-69.708.42-135.28 23.716-184.635 65.594-55.39 47-86.764 114.206-90.73 194.353zM590.7 227.524l.968.26-1.71 6.33-.967-.26 1.71-6.33zm-81.887-8.584l.19 6.53-.998.03-.19-6.53.998-.03zm-82.206 12.95l2.074 6.23-.95.315-2.07-6.23.947-.314zm-75.24 34.79l3.795 5.43-.82.57-3.793-5.43.82-.57h-.003zm-61.786 56.663l5.21 4.128-.62.786-5.21-4.13.62-.782zm-41.933 78.58l6.165 2.33-.354.935-6.166-2.328.354-.937zm-15.687 80.43l6.52.025-.003 1-6.52-.025.004-1zm285.05 263.7c-1.48 0-2.947-.01-4.43-.03-70.29-.976-136.08-25.104-185.245-67.95-55.277-48.17-85.952-116.726-88.708-198.25l1-.033c2.746 81.242 33.303 149.547 88.363 197.53 48.986 42.688 114.548 66.73 184.604 67.704 70.135.952 136.57-21.228 187.09-62.5 56.61-46.257 89.14-113.024 94.07-193.094l1 .062c-4.95 80.353-37.605 147.37-94.438 193.804-49.63 40.555-114.583 62.758-183.305 62.757zm211.635-90.555l4.956 4.425-.664.745-4.955-4.424.666-.746zm-63.31 51.26l3.47 5.625-.854.525-3.47-5.624.856-.526zm-75.166 30.007l1.704 6.324-.968.26-1.705-6.325.968-.26zm-81.87 8.698l1 .03-.194 6.524-1-.03.192-6.524zm-80.304-12.975l.946.315-2.077 6.225-.946-.317 2.074-6.222h.002zm-73.303-34.255l.82.57-3.79 5.43-.82-.573 3.79-5.427zM294.6 642.728l.622.782-5.204 4.126-.62-.78 5.202-4.128zm-40.69-76.868l.353.936-6.163 2.33-.354-.936 6.163-2.33zm260.478 154.868c-59.74 0-116.135-18.942-159.647-53.79-51.157-40.976-80.577-100.718-85.072-172.77l-.72-27.017.493-.024c7.408-67.204 37.493-123.088 87.114-161.73 45.002-35.047 103.465-53.706 164.578-52.535 61.005 1.168 118.378 22.036 161.55 58.76 48.426 41.195 76.32 99.828 80.673 169.56l-.998.064c-4.336-69.457-32.11-127.848-80.324-168.86-42.995-36.577-100.145-57.36-160.92-58.523-60.898-1.166-119.123 17.418-163.943 52.324-50.05 38.978-80.138 95.58-87.01 163.688h-.136l.647 24.255c4.477 71.746 33.767 131.24 84.7 172.032 45.468 36.412 105.065 55.386 167.833 53.432 63.482-1.98 122.324-25.155 165.687-65.265 48.894-45.227 74.738-108.84 74.738-183.96h1c0 75.408-25.955 139.273-75.06 184.695-43.54 40.27-102.61 63.544-166.335 65.53-2.954.092-5.904.138-8.84.137h-.002z"/><path fill="#fff" d="M658.025 355.892l76.838-62.224 52.56 64.9-76.837 62.224-52.56-64.9zm80.185 173.51l80.882 56.873-48.04 68.314-80.88-56.876L738.21 529.4zm-19.38-180.93h149v244h-149v-244z"/><path fill="#96ADC0" d="M264.85 519.562c.866 5.394 1.876 10.68 3.023 15.86l7.3-1.927c-1.113-5.028-2.095-10.16-2.936-15.396-2.463.49-4.926.975-7.388 1.46"/><path d="M264.85 519.562c.866 5.394 1.876 10.68 3.023 15.86l7.3-1.927c-1.113-5.028-2.095-10.16-2.936-15.396-2.463.49-4.926.975-7.388 1.46z" fill="none"/><path fill="#96ADC0" d="M291.55 599.647c2.28 4.217 4.67 8.328 7.168 12.333 2.13-1.394 4.263-2.783 6.394-4.178-2.425-3.888-4.746-7.88-6.96-11.97l-6.6 3.815"/><path d="M291.55 599.647c2.28 4.217 4.67 8.328 7.168 12.333 2.13-1.394 4.263-2.783 6.394-4.178-2.425-3.888-4.746-7.88-6.96-11.97l-6.6 3.815z" fill="none"/><path fill="#96ADC0" d="M338.91 660.133c3.347 3.04 6.77 5.98 10.272 8.808l4.912-5.85c-3.398-2.746-6.726-5.595-9.972-8.547l-5.213 5.59"/><path d="M338.91 660.133c3.347 3.04 6.77 5.98 10.272 8.808l4.912-5.85c-3.398-2.746-6.726-5.595-9.972-8.547l-5.213 5.59z" fill="none"/><path fill="#96ADC0" d="M401.163 701.02c4.065 1.862 8.184 3.624 12.344 5.275l3.02-6.944c-4.037-1.602-8.03-3.31-11.98-5.12-1.125 2.265-2.253 4.53-3.38 6.792"/><path d="M401.163 701.02c4.065 1.862 8.184 3.624 12.344 5.275l3.02-6.944c-4.037-1.602-8.03-3.31-11.98-5.12-1.125 2.265-2.253 4.53-3.38 6.792h-.004z" fill="none"/><path fill="#96ADC0" d="M472.555 722.305c4.442.69 8.902 1.272 13.375 1.75l.894-7.47c-4.34-.463-8.67-1.026-12.98-1.697l-1.29 7.417"/><path d="M472.555 722.305c4.442.69 8.902 1.272 13.375 1.75l.894-7.47c-4.34-.463-8.67-1.026-12.98-1.697l-1.29 7.417z" fill="none"/><path fill="#96ADC0" d="M547.32 723.99c4.473-.485 8.93-1.08 13.37-1.776l-1.305-7.418c-4.31.68-8.638 1.254-12.98 1.73.306 2.485.61 4.974.914 7.465"/><path d="M547.32 723.99c4.473-.485 8.93-1.08 13.37-1.776l-1.305-7.418c-4.31.68-8.638 1.254-12.98 1.73.306 2.485.61 4.974.914 7.465z" fill="none"/><path fill="#96ADC0" d="M619.702 706.078c4.155-1.663 8.27-3.432 12.33-5.306l-3.4-6.785c-3.94 1.82-7.934 3.536-11.97 5.15 1.015 2.314 2.026 4.628 3.04 6.94"/><path d="M619.702 706.078c4.155-1.663 8.27-3.432 12.33-5.306l-3.4-6.785c-3.94 1.82-7.934 3.536-11.97 5.15 1.015 2.314 2.026 4.628 3.04 6.94z" fill="none"/><path fill="#96ADC0" d="M683.938 668.565c3.494-2.84 6.914-5.783 10.252-8.834-1.74-1.86-3.48-3.72-5.226-5.58-3.24 2.964-6.56 5.82-9.95 8.577l4.924 5.84"/><path d="M683.938 668.565c3.494-2.84 6.914-5.783 10.252-8.834-1.74-1.86-3.48-3.72-5.226-5.58-3.24 2.964-6.56 5.82-9.95 8.577l4.924 5.84z" fill="none"/><path fill="#96ADC0" d="M251.524 522.022c.91 5.683 1.97 11.254 3.173 16.713 2.645-.693 5.285-1.39 7.93-2.084-1.17-5.292-2.195-10.694-3.076-16.205-2.674.525-5.35 1.05-8.025 1.578"/><path d="M251.524 522.022c.91 5.683 1.97 11.254 3.173 16.713 2.645-.693 5.285-1.39 7.93-2.084-1.17-5.292-2.195-10.694-3.076-16.205-2.674.525-5.35 1.05-8.025 1.578z" fill="none"/><path fill="#96ADC0" d="M279.59 606.41c2.395 4.443 4.912 8.776 7.54 12.997l6.942-4.53c-2.546-4.092-4.983-8.293-7.31-12.602l-7.173 4.135"/><path d="M279.59 606.41c2.395 4.443 4.912 8.776 7.54 12.997l6.942-4.53c-2.546-4.092-4.983-8.293-7.31-12.602l-7.173 4.135z" fill="none"/><path fill="#96ADC0" d="M329.423 670.15c3.52 3.206 7.13 6.3 10.813 9.28l5.336-6.35c-3.57-2.89-7.07-5.89-10.483-9l-5.666 6.07"/><path d="M329.423 670.15c3.52 3.206 7.13 6.3 10.813 9.28l5.336-6.35c-3.57-2.89-7.07-5.89-10.483-9l-5.666 6.07h-.002z" fill="none"/><path fill="#96ADC0" d="M394.963 713.247c4.282 1.966 8.616 3.82 12.997 5.564l3.282-7.54c-4.245-1.69-8.45-3.49-12.602-5.395l-3.677 7.373"/><path d="M394.963 713.247c4.282 1.966 8.616 3.82 12.997 5.564l3.282-7.54c-4.245-1.69-8.45-3.49-12.602-5.395l-3.677 7.373z" fill="none"/><path fill="#96ADC0" d="M470.136 735.695c4.678.728 9.375 1.344 14.085 1.85.327-2.704.65-5.407.975-8.11-4.563-.486-9.12-1.086-13.654-1.79l-1.403 8.05"/><path d="M470.136 735.695c4.678.728 9.375 1.344 14.085 1.85.327-2.704.65-5.407.975-8.11-4.563-.486-9.12-1.086-13.654-1.79l-1.403 8.05z" fill="none"/><path fill="#96ADC0" d="M548.873 737.5c4.708-.513 9.403-1.136 14.08-1.87l-1.41-8.05c-4.537.712-9.093 1.315-13.658 1.812l.985 8.105"/><path d="M548.873 737.5c4.708-.513 9.403-1.136 14.08-1.87l-1.41-8.05c-4.537.712-9.093 1.315-13.658 1.812l.985 8.105.003.002z" fill="none"/><path fill="#96ADC0" d="M625.103 718.655c4.378-1.75 8.71-3.61 12.988-5.584l-3.69-7.365c-4.147 1.91-8.346 3.716-12.59 5.413l3.294 7.538"/><path d="M625.103 718.655c4.378-1.75 8.71-3.61 12.988-5.584l-3.69-7.365c-4.147 1.91-8.346 3.716-12.59 5.413l3.294 7.538z" fill="none"/><path fill="#96ADC0" d="M692.763 679.165c3.68-2.987 7.282-6.088 10.8-9.3l-5.675-6.058c-3.41 3.112-6.902 6.12-10.47 9.02l5.345 6.34"/><path d="M692.763 679.165c3.68-2.987 7.282-6.088 10.8-9.3l-5.675-6.058c-3.41 3.112-6.902 6.12-10.47 9.02l5.345 6.34v-.002z" fill="none"/><path fill="#96ADC0" d="M693.293 311.122c-3.35-3.043-6.777-5.98-10.28-8.81l-5.067 6.035c3.397 2.745 6.72 5.593 9.967 8.543l5.38-5.768"/><path d="M693.293 311.122c-3.35-3.043-6.777-5.98-10.28-8.81l-5.067 6.035c3.397 2.745 6.72 5.593 9.967 8.543l5.38-5.768z" fill="none"/><path fill="#96ADC0" d="M631.008 270.217c-4.07-1.866-8.188-3.626-12.35-5.28-1.038 2.39-2.077 4.778-3.116 7.167 4.032 1.603 8.025 3.31 11.973 5.12l3.49-7.01"/><path d="M631.008 270.217c-4.07-1.866-8.188-3.626-12.35-5.28-1.038 2.39-2.077 4.778-3.116 7.167 4.032 1.603 8.025 3.31 11.973 5.12l3.49-7.01.003.003z" fill="none"/><path fill="#96ADC0" d="M559.583 248.92c-4.443-.69-8.906-1.272-13.38-1.75l-.924 7.707c4.34.463 8.664 1.03 12.976 1.697l1.326-7.653"/><path d="M559.583 248.92c-4.443-.69-8.906-1.272-13.38-1.75l-.924 7.707c4.34.463 8.664 1.03 12.976 1.697l1.326-7.653z" fill="none"/><path fill="#96ADC0" d="M484.782 247.235c-4.474.486-8.935 1.08-13.377 1.777l1.346 7.65c4.31-.677 8.636-1.252 12.974-1.724l-.94-7.704"/><path d="M484.782 247.235c-4.474.486-8.935 1.08-13.377 1.777l1.346 7.65c4.31-.677 8.636-1.252 12.974-1.724l-.94-7.704z" fill="none"/><path fill="#96ADC0" d="M412.368 265.155c-4.156 1.665-8.27 3.434-12.337 5.31l3.51 7c3.94-1.82 7.93-3.535 11.963-5.147l-3.134-7.163m-64.267 37.53c-3.497 2.84-6.918 5.787-10.258 8.838l5.392 5.757c3.24-2.96 6.558-5.816 9.947-8.57l-5.08-6.025"/><path d="M348.103 302.685c-3.497 2.84-6.918 5.787-10.258 8.838l5.392 5.757c3.24-2.96 6.558-5.816 9.947-8.57l-5.08-6.025z" fill="none"/><path fill="#96ADC0" d="M297.745 359.825c-2.49 4.018-4.87 8.14-7.143 12.37 2.276 1.305 4.55 2.61 6.825 3.917 2.202-4.1 4.512-8.098 6.925-11.994l-6.605-4.292"/><path d="M297.745 359.825c-2.49 4.018-4.87 8.14-7.143 12.37 2.276 1.305 4.55 2.61 6.825 3.917 2.202-4.1 4.512-8.098 6.925-11.994l-6.605-4.292h-.002z" fill="none"/><path fill="#96ADC0" d="M267.064 436.575c-1.135 5.193-2.133 10.492-2.988 15.896 2.542.498 5.085.99 7.628 1.487.83-5.24 1.8-10.377 2.9-15.412l-7.54-1.97"/><path d="M267.064 436.575c-1.135 5.193-2.133 10.492-2.988 15.896 2.542.498 5.085.99 7.628 1.487.83-5.24 1.8-10.377 2.9-15.412l-7.54-1.97z" fill="none"/><path fill="#96ADC0" d="M703.576 299.285c-3.52-3.205-7.128-6.298-10.812-9.28-1.78 2.115-3.558 4.23-5.335 6.347 3.57 2.892 7.07 5.89 10.484 9l5.664-6.067"/><path d="M703.576 299.285c-3.52-3.205-7.128-6.298-10.812-9.28-1.78 2.115-3.558 4.23-5.335 6.347 3.57 2.892 7.07 5.89 10.484 9l5.664-6.067h-.004z" fill="none"/><path fill="#96ADC0" d="M638.038 256.19c-4.282-1.967-8.616-3.82-12.996-5.565l-3.286 7.54c4.247 1.69 8.45 3.49 12.602 5.397l3.678-7.373h.002z"/><path d="M638.038 256.19c-4.282-1.967-8.616-3.82-12.996-5.565l-3.286 7.54c4.247 1.69 8.45 3.49 12.602 5.397l3.678-7.373h.002z" fill="none"/><path fill="#96ADC0" d="M562.865 233.74c-4.678-.728-9.375-1.343-14.085-1.848l-.973 8.11c4.567.488 9.122 1.086 13.658 1.79l1.4-8.052"/><path d="M562.865 233.74c-4.678-.728-9.375-1.343-14.085-1.848l-.973 8.11c4.567.488 9.122 1.086 13.658 1.79l1.4-8.052z" fill="none"/><path fill="#96ADC0" d="M484.13 231.937c-4.71.51-9.407 1.134-14.084 1.868.47 2.684.94 5.367 1.413 8.05 4.53-.71 9.09-1.315 13.652-1.81l-.984-8.108"/><path d="M484.13 231.937c-4.71.51-9.407 1.134-14.084 1.868.47 2.684.94 5.367 1.413 8.05 4.53-.71 9.09-1.315 13.652-1.81l-.984-8.108z" fill="none"/><path fill="#96ADC0" d="M407.896 250.78c-4.377 1.75-8.708 3.612-12.988 5.584l3.69 7.366c4.15-1.913 8.35-3.72 12.594-5.415l-3.296-7.535z"/><path d="M407.896 250.78c-4.377 1.75-8.708 3.612-12.988 5.584l3.69 7.366c4.15-1.913 8.35-3.72 12.594-5.415l-3.296-7.535z" fill="none"/><path fill="#96ADC0" d="M340.238 290.27c-3.68 2.99-7.28 6.087-10.8 9.3 1.894 2.02 3.783 4.04 5.675 6.057 3.41-3.114 6.904-6.12 10.476-9.018l-5.353-6.34z"/><path d="M340.238 290.27c-3.68 2.99-7.28 6.087-10.8 9.3 1.894 2.02 3.783 4.04 5.675 6.057 3.41-3.114 6.904-6.12 10.476-9.018l-5.353-6.34z" fill="none"/><path fill="#96ADC0" d="M287.223 350.405c-2.62 4.228-5.128 8.566-7.52 13.017 2.395 1.374 4.786 2.75 7.182 4.123 2.315-4.316 4.75-8.523 7.29-12.622l-6.952-4.518"/><path d="M287.223 350.405c-2.62 4.228-5.128 8.566-7.52 13.017 2.395 1.374 4.786 2.75 7.182 4.123 2.315-4.316 4.75-8.523 7.29-12.622l-6.952-4.518z" fill="none"/><path fill="#96ADC0" d="M254.92 431.186c-1.195 5.467-2.246 11.044-3.146 16.73l8.03 1.564c.872-5.52 1.89-10.927 3.05-16.228l-7.93-2.07"/><path d="M254.92 431.186c-1.195 5.467-2.246 11.044-3.146 16.73l8.03 1.564c.872-5.52 1.89-10.927 3.05-16.228l-7.93-2.07h-.003v.004z" fill="none"/><path fill="#96ADC0" d="M737.803 267.453c-4.162-3.79-8.422-7.45-12.776-10.976l-26 30.895c3.81 3.087 7.54 6.29 11.18 9.606l27.596-29.525"/><path d="M737.803 267.453c-4.162-3.79-8.422-7.45-12.776-10.976l-26 30.895c3.81 3.087 7.54 6.29 11.18 9.606l27.596-29.525z" fill="none"/><path fill="#96ADC0" d="M709.753 117.667c-6.798-3.126-13.68-6.076-20.633-8.85L629 246.597c4.53 1.807 9.013 3.73 13.44 5.765l67.31-134.695h.003z"/><path d="M709.753 117.667c-6.798-3.126-13.68-6.076-20.633-8.85L629 246.597c4.53 1.807 9.013 3.73 13.44 5.765l67.31-134.695h.003z" fill="none"/><path fill="#96ADC0" d="M603.925 4.605c-8.788-1.374-17.612-2.538-26.462-3.492l-27.328 226.054c4.873.525 9.73 1.166 14.57 1.922L603.923 4.603"/><path d="M603.925 4.605c-8.788-1.374-17.612-2.538-26.462-3.492l-27.328 226.054c4.873.525 9.73 1.166 14.57 1.922L603.923 4.603h.002z" fill="none"/><path fill="#96ADC0" d="M478.567 188.22c-5.558.598-11.1 1.328-16.618 2.19l6.744 38.668c4.838-.755 9.696-1.395 14.568-1.92-1.563-12.98-3.13-25.96-4.696-38.938"/><path d="M478.567 188.22c-5.558.598-11.1 1.328-16.618 2.19l6.744 38.668c4.838-.755 9.696-1.395 14.568-1.92-1.563-12.98-3.13-25.96-4.696-38.938z" fill="none"/><path fill="#96ADC0" d="M361.853 149.008c-6.247 2.49-12.427 5.136-18.534 7.943l47.63 95.38c4.43-2.033 8.91-3.953 13.44-5.76l-42.54-97.56"/><path d="M361.853 149.008c-6.247 2.49-12.427 5.136-18.534 7.943l47.63 95.38c4.43-2.033 8.91-3.953 13.44-5.76l-42.54-97.56z" fill="none"/><path fill="#96ADC0" d="M42.8 379.46c-2.18 9.88-4.1 19.962-5.75 30.247l205.55 40.435c.94-5.877 2.037-11.638 3.283-17.283L42.8 379.46"/><path d="M42.8 379.46c-2.18 9.88-4.1 19.962-5.75 30.247l205.55 40.435c.94-5.877 2.037-11.638 3.283-17.283L42.8 379.46z" fill="none"/><path fill="#96ADC0" d="M784.376 753.21c-5.032 4.583-10.187 9.01-15.45 13.273-23.256-27.63-46.51-55.265-69.767-82.896 3.81-3.085 7.533-6.284 11.173-9.6l74.042 79.222"/><path d="M784.376 753.21c-5.032 4.583-10.187 9.01-15.45 13.273-23.256-27.63-46.51-55.265-69.767-82.896 3.81-3.085 7.533-6.284 11.173-9.6l74.042 79.222z" fill="none"/><path fill="#96ADC0" d="M602.623 957.58c-8.63 1.35-17.3 2.492-25.99 3.43-8.754-72.418-17.51-144.837-26.263-217.255 4.87-.523 9.723-1.166 14.558-1.922l37.695 215.747"/><path d="M602.623 957.58c-8.63 1.35-17.3 2.492-25.99 3.43-8.754-72.418-17.51-144.837-26.263-217.255 4.87-.523 9.723-1.166 14.558-1.922l37.695 215.747z" fill="none"/><path fill="#96ADC0" d="M460.987 930.76c-8.16-.88-16.295-1.95-24.396-3.214l32.396-185.7c4.836.757 9.69 1.396 14.56 1.92L460.988 930.76"/><path d="M460.987 930.76c-8.16-.88-16.295-1.95-24.396-3.214l32.396-185.7c4.836.757 9.69 1.396 14.56 1.92L460.988 930.76z" fill="none"/><path fill="#96ADC0" d="M310.54 712.403c-4.314-3.493-8.537-7.116-12.66-10.87l25.68-27.49c3.64 3.312 7.368 6.51 11.176 9.595l-24.196 28.765"/><path d="M310.54 712.403c-4.314-3.493-8.537-7.116-12.66-10.87l25.68-27.49c3.64 3.312 7.368 6.51 11.176 9.595l-24.196 28.765z" fill="none"/><path fill="#D4A647" d="M272.683 553.948c1.473 4.922 3.076 9.738 4.805 14.45l7.02-2.896c-1.68-4.572-3.235-9.248-4.665-14.023l-7.16 2.467"/><path d="M272.683 553.948c1.473 4.922 3.076 9.738 4.805 14.45l7.02-2.896c-1.68-4.572-3.235-9.248-4.665-14.023l-7.16 2.467z" fill="none"/><path fill="#D4A647" d="M308.338 626.193c2.748 3.747 5.594 7.388 8.534 10.923l5.857-4.913c-2.855-3.43-5.62-6.965-8.285-10.603l-6.108 4.593"/><path d="M308.338 626.193c2.748 3.747 5.594 7.388 8.534 10.923l5.857-4.913c-2.855-3.43-5.62-6.965-8.285-10.603l-6.108 4.593z" fill="none"/><path fill="#D4A647" d="M362.346 678.84c3.676 2.57 7.42 5.035 11.227 7.395l4.194-6.36c-3.694-2.288-7.328-4.68-10.896-7.177l-4.523 6.14z"/><path d="M362.346 678.84c3.676 2.57 7.42 5.035 11.227 7.395l4.194-6.36c-3.694-2.288-7.328-4.68-10.896-7.177l-4.523 6.14z" fill="none"/><path fill="#D4A647" d="M428.946 711.885c4.258 1.397 8.556 2.687 12.88 3.867l2.19-7.225c-4.2-1.148-8.37-2.4-12.502-3.753l-2.568 7.11"/><path d="M428.946 711.885c4.258 1.397 8.556 2.687 12.88 3.867l2.19-7.225c-4.2-1.148-8.37-2.4-12.502-3.753l-2.568 7.11z" fill="none"/><path fill="#D4A647" d="M502.378 725.33c4.496.22 8.997.333 13.498.34l.014-7.517c-4.37-.007-8.74-.116-13.102-.328l-.41 7.506z"/><path d="M502.378 725.33c4.496.22 8.997.333 13.498.34l.014-7.517c-4.37-.007-8.74-.116-13.102-.328l-.41 7.506z" fill="none"/><path fill="#D4A647" d="M576.88 719.178c4.388-.957 8.75-2.02 13.08-3.188-.72-2.412-1.44-4.822-2.162-7.233-4.204 1.137-8.438 2.166-12.696 3.098.59 2.437 1.184 4.88 1.78 7.323"/><path d="M576.88 719.178c4.388-.957 8.75-2.02 13.08-3.188-.72-2.412-1.44-4.822-2.162-7.233-4.204 1.137-8.438 2.166-12.696 3.098.59 2.437 1.184 4.88 1.78 7.323z" fill="none"/><path fill="#D4A647" d="M646.695 693.425c3.935-2.133 7.81-4.372 11.624-6.717l-4.174-6.372c-3.702 2.277-7.465 4.45-11.283 6.522l3.83 6.567"/><path d="M646.695 693.425c3.935-2.133 7.81-4.372 11.624-6.717l-4.174-6.372c-3.702 2.277-7.465 4.45-11.283 6.522l3.83 6.567z" fill="none"/><path fill="#D4A647" d="M706.062 648.072c3.132-3.31 6.178-6.727 9.13-10.245l-5.842-4.936c-2.867 3.42-5.823 6.73-8.864 9.943 1.86 1.748 3.718 3.49 5.576 5.24"/><path d="M706.062 648.072c3.132-3.31 6.178-6.727 9.13-10.245l-5.842-4.936c-2.867 3.42-5.823 6.73-8.864 9.943 1.86 1.748 3.718 3.49 5.576 5.24z" fill="none"/><path fill="#D4A647" d="M259.75 558.255c1.548 5.188 3.23 10.265 5.05 15.23l7.622-3.142c-1.765-4.812-3.398-9.733-4.9-14.765l-7.772 2.677"/><path d="M259.75 558.255c1.548 5.188 3.23 10.265 5.05 15.23l7.622-3.142c-1.765-4.812-3.398-9.733-4.9-14.765l-7.772 2.677z" fill="none"/><path fill="#D4A647" d="M297.25 634.385c2.89 3.947 5.887 7.784 8.98 11.51 2.12-1.775 4.243-3.555 6.366-5.33-3-3.612-5.906-7.333-8.71-11.16l-6.636 4.98"/><path d="M297.25 634.385c2.89 3.947 5.887 7.784 8.98 11.51 2.12-1.775 4.243-3.555 6.366-5.33-3-3.612-5.906-7.333-8.71-11.16l-6.636 4.98z" fill="none"/><path fill="#D4A647" d="M354.095 689.865c3.87 2.71 7.812 5.31 11.82 7.796l4.557-6.9c-3.888-2.407-7.71-4.93-11.46-7.56l-4.917 6.666"/><path d="M354.095 689.865c3.87 2.71 7.812 5.31 11.82 7.796l4.557-6.9c-3.888-2.407-7.71-4.93-11.46-7.56l-4.917 6.666z" fill="none"/><path fill="#D4A647" d="M424.216 724.705c4.482 1.47 9.007 2.83 13.562 4.076.793-2.612 1.586-5.23 2.38-7.84-4.418-1.21-8.803-2.53-13.15-3.955l-2.792 7.72"/><path d="M424.216 724.705c4.482 1.47 9.007 2.83 13.562 4.076.793-2.612 1.586-5.23 2.38-7.84-4.418-1.21-8.803-2.53-13.15-3.955l-2.792 7.72z" fill="none"/><path fill="#D4A647" d="M501.543 738.896c4.73.23 9.474.353 14.215.36l.017-8.16c-4.597-.01-9.19-.128-13.784-.35l-.447 8.15"/><path d="M501.543 738.896c4.73.23 9.474.353 14.215.36l.017-8.16c-4.597-.01-9.19-.128-13.784-.35l-.447 8.15z" fill="none"/><path fill="#D4A647" d="M580.005 732.438c4.62-1.006 9.214-2.125 13.773-3.354l-2.346-7.855c-4.422 1.19-8.877 2.273-13.358 3.252l1.93 7.953"/><path d="M580.005 732.438c4.62-1.006 9.214-2.125 13.773-3.354l-2.346-7.855c-4.422 1.19-8.877 2.273-13.358 3.252l1.93 7.953v.002z" fill="none"/><path fill="#D4A647" d="M653.536 705.337c4.144-2.245 8.227-4.604 12.243-7.07l-4.53-6.92c-3.897 2.396-7.855 4.68-11.87 6.857l4.155 7.133"/><path d="M653.536 705.337c4.144-2.245 8.227-4.604 12.243-7.07l-4.53-6.92c-3.897 2.396-7.855 4.68-11.87 6.857l4.155 7.133z" fill="none"/><path fill="#D4A647" d="M716.065 657.59c3.3-3.482 6.508-7.08 9.62-10.788-2.116-1.784-4.23-3.57-6.345-5.36-3.018 3.6-6.127 7.085-9.327 10.464l6.052 5.683"/><path d="M716.065 657.59c3.3-3.482 6.508-7.08 9.62-10.788-2.116-1.784-4.23-3.57-6.345-5.36-3.018 3.6-6.127 7.085-9.327 10.464l6.052 5.683z" fill="none"/><path fill="#D4A647" d="M669.843 292.407c-3.677-2.572-7.422-5.038-11.23-7.398l-4.33 6.56c3.694 2.286 7.326 4.68 10.895 7.17l4.665-6.334z"/><path d="M669.843 292.407c-3.677-2.572-7.422-5.038-11.23-7.398l-4.33 6.56c3.694 2.286 7.326 4.68 10.895 7.17l4.665-6.334z" fill="none"/><path fill="#D4A647" d="M603.213 259.345c-4.26-1.395-8.56-2.684-12.89-3.868l-2.26 7.455c4.2 1.148 8.367 2.398 12.498 3.75l2.654-7.337"/><path d="M603.213 259.345c-4.26-1.395-8.56-2.684-12.89-3.868l-2.26 7.455c4.2 1.148 8.367 2.398 12.498 3.75l2.654-7.337z" fill="none"/><path fill="#D4A647" d="M529.745 245.893c-4.497-.22-9-.332-13.506-.34l-.016 7.756c4.368.005 8.735.115 13.096.33l.423-7.748"/><path d="M529.745 245.893c-4.497-.22-9-.332-13.506-.34l-.016 7.756c4.368.005 8.735.115 13.096.33l.423-7.748h.002z" fill="none"/><path fill="#D4A647" d="M455.208 252.05c-4.39.958-8.753 2.02-13.086 3.19l2.228 7.462c4.203-1.133 8.435-2.165 12.69-3.093l-1.832-7.56"/><path d="M455.208 252.05c-4.39.958-8.753 2.02-13.086 3.19l2.228 7.462c4.203-1.133 8.435-2.165 12.69-3.093l-1.832-7.56z" fill="none"/><path fill="#D4A647" d="M385.36 277.815c-3.935 2.134-7.812 4.374-11.628 6.72l4.304 6.573c3.7-2.274 7.46-4.446 11.276-6.515l-3.952-6.778z"/><path d="M385.36 277.815c-3.935 2.134-7.812 4.374-11.628 6.72l4.304 6.573c3.7-2.274 7.46-4.446 11.276-6.515l-3.952-6.778z" fill="none"/><path fill="#D4A647" d="M325.968 323.19c-3.135 3.31-6.184 6.727-9.136 10.25l6.025 5.09c2.864-3.415 5.82-6.73 8.86-9.94l-5.75-5.4"/><path d="M325.968 323.19c-3.135 3.31-6.184 6.727-9.136 10.25l6.025 5.09c2.864-3.415 5.82-6.73 8.86-9.94l-5.75-5.4z" fill="none"/><path fill="#D4A647" d="M282.79 388.173c-1.99 4.487-3.86 9.08-5.605 13.78l7.23 3.015c1.69-4.556 3.507-9.01 5.436-13.36l-7.06-3.435z"/><path d="M282.79 388.173c-1.99 4.487-3.86 9.08-5.605 13.78l7.23 3.015c1.69-4.556 3.507-9.01 5.436-13.36l-7.06-3.435z" fill="none"/><path fill="#D4A647" d="M261.593 472.765c-.5 5.664-.846 11.436-1.038 17.31l7.734.348c.185-5.698.52-11.293 1.004-16.785l-7.703-.87"/><path d="M261.593 472.765c-.5 5.664-.846 11.436-1.038 17.31l7.734.348c.185-5.698.52-11.293 1.004-16.785l-7.703-.87v-.003z" fill="none"/><path fill="#D4A647" d="M678.906 279.57c-3.87-2.71-7.812-5.308-11.816-7.794l-4.56 6.9c3.887 2.413 7.71 4.933 11.46 7.56l4.916-6.666"/><path d="M678.906 279.57c-3.87-2.71-7.812-5.308-11.816-7.794l-4.56 6.9c3.887 2.413 7.71 4.933 11.46 7.56l4.916-6.666z" fill="none"/><path fill="#D4A647" d="M608.786 244.732c-4.483-1.47-9.007-2.83-13.562-4.078l-2.38 7.84c4.418 1.21 8.803 2.528 13.15 3.955.932-2.576 1.86-5.148 2.793-7.72"/><path d="M608.786 244.732c-4.483-1.47-9.007-2.83-13.562-4.078l-2.38 7.84c4.418 1.21 8.803 2.528 13.15 3.955.932-2.576 1.86-5.148 2.793-7.72z" fill="none"/><path fill="#D4A647" d="M531.46 230.54c-4.735-.23-9.478-.352-14.22-.36l-.017 8.16c4.597.01 9.194.126 13.785.35l.45-8.15"/><path d="M531.46 230.54c-4.735-.23-9.478-.352-14.22-.36l-.017 8.16c4.597.01 9.194.126 13.785.35l.45-8.15z" fill="none"/><path fill="#D4A647" d="M452.995 236.997c-4.62 1.007-9.215 2.125-13.775 3.354l2.347 7.855c4.423-1.194 8.878-2.28 13.358-3.255l-1.93-7.953z"/><path d="M452.995 236.997c-4.62 1.007-9.215 2.125-13.775 3.354l2.347 7.855c4.423-1.194 8.878-2.28 13.358-3.255l-1.93-7.953z" fill="none"/><path fill="#D4A647" d="M379.465 264.1c-4.144 2.245-8.227 4.6-12.243 7.07l4.527 6.92c3.894-2.395 7.852-4.68 11.87-6.858l-4.158-7.133"/><path d="M379.465 264.1c-4.144 2.245-8.227 4.6-12.243 7.07l4.527 6.92c3.894-2.395 7.852-4.68 11.87-6.858l-4.158-7.133h.002z" fill="none"/><path fill="#D4A647" d="M316.935 311.845c-3.3 3.485-6.508 7.08-9.62 10.788l6.347 5.36c3.015-3.596 6.125-7.083 9.324-10.46l-6.05-5.688"/><path d="M316.935 311.845c-3.3 3.485-6.508 7.08-9.62 10.788l6.347 5.36c3.015-3.596 6.125-7.083 9.324-10.46l-6.05-5.688z" fill="none"/><path fill="#D4A647" d="M271.476 380.24c-2.094 4.724-4.062 9.558-5.9 14.504l7.608 3.172c1.784-4.796 3.693-9.484 5.724-14.062-2.476-1.206-4.95-2.41-7.43-3.615"/><path d="M271.476 380.24c-2.094 4.724-4.062 9.558-5.9 14.504l7.608 3.172c1.784-4.796 3.693-9.484 5.724-14.062-2.476-1.206-4.95-2.41-7.43-3.615h-.002z" fill="none"/><path fill="#D4A647" d="M249.157 469.28c-.52 5.962-.89 12.035-1.092 18.22 2.714.12 5.426.242 8.14.363.196-5.998.55-11.887 1.06-17.668l-8.108-.915"/><path d="M249.157 469.28c-.52 5.962-.89 12.035-1.092 18.22 2.714.12 5.426.242 8.14.363.196-5.998.55-11.887 1.06-17.668l-8.108-.915z" fill="none"/><path fill="#D4A647" d="M747.056 192.152c-5.486-3.846-11.073-7.534-16.754-11.064L672.477 268.5c4.143 2.575 8.22 5.265 12.22 8.07 20.785-28.14 41.57-56.28 62.36-84.418"/><path d="M747.056 192.152c-5.486-3.846-11.073-7.534-16.754-11.064L672.477 268.5c4.143 2.575 8.22 5.265 12.22 8.07 20.785-28.14 41.57-56.28 62.36-84.418z" fill="none"/><path fill="#D4A647" d="M638.873 166.88c-5.934-1.95-11.916-3.753-17.943-5.41l-22.764 74.795c4.71 1.294 9.39 2.703 14.024 4.227l26.683-73.612"/><path d="M638.873 166.88c-5.934-1.95-11.916-3.753-17.943-5.41l-22.764 74.795c4.71 1.294 9.39 2.703 14.024 4.227l26.683-73.612z" fill="none"/><path fill="#D4A647" d="M543.223 28.99c-8.36-.416-16.73-.636-25.1-.66l-.605 197.04c4.904.014 9.807.142 14.704.387 3.665-65.59 7.33-131.178 11-196.767"/><path d="M543.223 28.99c-8.36-.416-16.73-.636-25.1-.66l-.605 197.04c4.904.014 9.807.142 14.704.387 3.665-65.59 7.33-131.178 11-196.767z" fill="none"/><path fill="#D4A647" d="M396.085 4.713c-8.786 1.905-17.52 4.022-26.194 6.35l66.915 224.754c4.72-1.267 9.474-2.418 14.254-3.455L396.09 4.712"/><path d="M396.085 4.713c-8.786 1.905-17.52 4.022-26.194 6.35l66.915 224.754c4.72-1.267 9.474-2.418 14.254-3.455L396.09 4.712h-.004z" fill="none"/><path fill="#D4A647" d="M361.683 237.46c-4.69 2.534-9.312 5.194-13.86 7.98l14.47 22.168c4.16-2.547 8.39-4.98 12.676-7.297l-13.288-22.85"/><path d="M361.683 237.46c-4.69 2.534-9.312 5.194-13.86 7.98l14.47 22.168c4.16-2.547 8.39-4.98 12.676-7.297l-13.288-22.85z" fill="none"/><path fill="#D4A647" d="M239.322 368.625c-2.376 5.336-4.61 10.798-6.7 16.385l24.347 10.204c1.91-5.11 3.952-10.104 6.126-14.98l-23.775-11.61"/><path d="M239.322 368.625c-2.376 5.336-4.61 10.798-6.7 16.385l24.347 10.204c1.91-5.11 3.952-10.104 6.126-14.98l-23.775-11.61z" fill="none"/><path fill="#D4A647" d="M213.902 469.223c-.604 6.736-1.03 13.6-1.27 20.588l26.06 1.224c.22-6.39.61-12.664 1.162-18.822l-25.952-2.987"/><path d="M213.902 469.223c-.604 6.736-1.03 13.6-1.27 20.588l26.06 1.224c.22-6.39.61-12.664 1.162-18.822l-25.952-2.987z" fill="none"/><path fill="#D4A647" d="M862.66 726.292c-4.557 6.23-9.275 12.28-14.152 18.156-38.07-31.848-76.14-63.695-114.208-95.544 3.195-3.855 6.29-7.82 9.276-11.905l119.083 89.29"/><path d="M862.66 726.292c-4.557 6.23-9.275 12.28-14.152 18.156-38.07-31.848-76.14-63.695-114.208-95.544 3.195-3.855 6.29-7.82 9.276-11.905l119.083 89.29z" fill="none"/><path fill="#D4A647" d="M699.272 713.92c-4.34 3.044-8.764 5.963-13.26 8.757l-13.382-20.23c4.14-2.57 8.213-5.26 12.212-8.06l14.43 19.533"/><path d="M699.272 713.92c-4.34 3.044-8.764 5.963-13.26 8.757l-13.382-20.23c4.14-2.57 8.213-5.26 12.212-8.06l14.43 19.533z" fill="none"/><path fill="#D4A647" d="M274.647 883.805c-7.33-3.962-14.557-8.12-21.667-12.477L362.652 703.34c4.157 2.547 8.38 4.98 12.665 7.293l-100.67 173.17v.002z"/><path d="M274.647 883.805c-7.33-3.962-14.557-8.12-21.667-12.477L362.652 703.34c4.157 2.547 8.38 4.98 12.665 7.293l-100.67 173.17v.002z" fill="none"/><path fill="#D4A647" d="M77.433 681.66c-3.768-8.456-7.312-17.11-10.62-25.965l190.585-79.876c1.908 5.102 3.952 10.093 6.124 14.97l-186.09 90.87"/><path d="M77.433 681.66c-3.768-8.456-7.312-17.11-10.62-25.965l190.585-79.876c1.908 5.102 3.952 10.093 6.124 14.97l-186.09 90.87z" fill="none"/><path fill="#D4A647" d="M23.643 523.8c-.985-10.974-1.68-22.15-2.073-33.537 72.52-3.4 145.042-6.797 217.563-10.193.22 6.384.61 12.652 1.162 18.807L23.643 523.8"/><path d="M23.643 523.8c-.985-10.974-1.68-22.15-2.073-33.537 72.52-3.4 145.042-6.797 217.563-10.193.22 6.384.61 12.652 1.162 18.807L23.643 523.8zm794.42 305.29c-6.367 5.09-12.87 9.99-19.495 14.695l-112.396-150.34c3.98-2.83 7.89-5.772 11.716-8.832L818.062 829.09z" fill="none"/><path fill="#E0ACA1" d="M268.26 537.146c1.178 5.16 2.492 10.212 3.936 15.156l7.175-2.423c-1.4-4.8-2.68-9.707-3.817-14.714l-7.292 1.98m82.094 132.73c3.518 2.81 7.11 5.507 10.77 8.102l4.56-6.115c-3.55-2.52-7.04-5.143-10.452-7.863-1.627 1.956-3.25 3.916-4.877 5.876M487.42 724.21c4.478.454 8.966.803 13.46 1.045.15-2.502.303-5.003.455-7.505-4.363-.232-8.72-.573-13.064-1.014l-.85 7.474zm207.883-65.5c3.32-3.073 6.56-6.253 9.712-9.54l-5.545-5.268c-3.06 3.19-6.204 6.273-9.427 9.26l5.26 5.548zm-440.2-118.16c1.237 5.438 2.617 10.763 4.135 15.973l7.79-2.622c-1.47-5.054-2.81-10.215-4.008-15.485l-7.916 2.136m32.904 80.26c2.65 4.195 5.415 8.28 8.283 12.256l6.67-4.946c-2.78-3.855-5.46-7.813-8.032-11.884-2.308 1.524-4.613 3.05-6.92 4.57m53.462 59.616c3.702 2.957 7.48 5.805 11.337 8.537l4.955-6.638c-3.738-2.652-7.405-5.412-10.996-8.28l-5.3 6.38m67.953 38.965c4.39 1.72 8.822 3.326 13.3 4.82l2.834-7.703c-4.34-1.45-8.64-3.01-12.898-4.676l-3.24 7.56M564.51 735.38c4.673-.76 9.326-1.63 13.95-2.61l-1.88-7.963c-4.486.948-9 1.795-13.53 2.528l1.46 8.044m75.006-22.974c4.268-2 8.482-4.108 12.638-6.33-1.37-2.384-2.74-4.77-4.113-7.154-4.03 2.155-8.114 4.2-12.253 6.14l3.733 7.347-.004-.005zm42.327-411.037c-3.52-2.81-7.113-5.51-10.775-8.105-1.57 2.102-3.138 4.205-4.706 6.31 3.55 2.515 7.034 5.134 10.447 7.856l5.032-6.062M617.27 264.39c-4.173-1.63-8.388-3.155-12.64-4.574l-2.69 7.323c4.12 1.374 8.21 2.853 12.254 4.434l3.075-7.185m-72.56-17.376c-4.48-.454-8.973-.803-13.468-1.045-.154 2.58-.31 5.16-.47 7.742 4.362.235 8.716.573 13.06 1.013l.876-7.71m-74.784 2.233c-4.438.722-8.858 1.55-13.253 2.484l1.793 7.566c4.26-.906 8.547-1.71 12.85-2.41l-1.39-7.64zm-71.247 21.843c-4.054 1.9-8.058 3.905-12.005 6.016l3.913 6.798c3.827-2.044 7.71-3.99 11.64-5.83l-3.55-6.983m-61.946 41.453c-3.323 3.076-6.563 6.257-9.718 9.544l5.72 5.435c3.06-3.187 6.2-6.272 9.423-9.254-1.81-1.907-3.616-3.816-5.426-5.725m-46.88 61.063c-2.248 4.25-4.38 8.61-6.396 13.072l7.04 3.48c1.953-4.33 4.02-8.554 6.2-12.677l-6.846-3.874m-26.054 80.67c-.823 5.428-1.502 10.962-2.033 16.603l7.7.927c.514-5.47 1.173-10.836 1.97-16.1l-7.635-1.43m359.785-204.23c-4.39-1.72-8.825-3.326-13.3-4.82l-2.84 7.703c4.34 1.45 8.643 3.01 12.9 4.677l3.24-7.56m-76.37-18.32c-4.713-.48-9.44-.85-14.174-1.104l-.495 8.147c4.59.25 9.175.606 13.744 1.07.313-2.702.62-5.407.928-8.113m-78.72 2.328c-4.673.758-9.324 1.628-13.95 2.61l1.883 7.965c4.483-.953 8.996-1.797 13.525-2.533l-1.46-8.042m-140.22 66.59c-3.497 3.236-6.91 6.584-10.23 10.043l6.022 5.72c3.22-3.353 6.528-6.6 9.92-9.738l-5.71-6.025m-49.36 64.266c-2.362 4.477-4.61 9.064-6.73 13.76l7.41 3.66c2.056-4.553 4.232-9 6.525-13.34l-7.205-4.08m-27.43 84.91c-.868 5.716-1.584 11.54-2.14 17.478l8.1.977c.54-5.76 1.234-11.406 2.075-16.946-2.68-.5-5.358-1.005-8.036-1.508M563.316 98.206c-7.142-.73-14.302-1.295-21.473-1.69-2.66 43.11-5.325 86.218-7.99 129.326 4.897.27 9.785.656 14.66 1.156l14.803-128.79M449.652 132.75c-6.532 1.055-13.038 2.266-19.507 3.632l22.505 95.635c4.786-1.01 9.6-1.908 14.435-2.688l-17.43-96.584M287.132 51.004c-7.97 3.718-15.84 7.646-23.604 11.78L376.4 259.544c4.3-2.293 8.66-4.47 13.077-6.53L287.133 51.003M212.445 182.15c-5.66 5.22-11.183 10.622-16.558 16.204l115.48 110.05c3.44-3.57 6.974-7.028 10.596-10.37-36.504-38.63-73.01-77.258-109.518-115.884m605.618 646.94c-6.366 5.09-12.868 9.99-19.494 14.694L686.17 693.444c3.98-2.83 7.89-5.77 11.716-8.83L818.06 829.09m-368.3 10.09c-6.546-1.06-13.066-2.27-19.55-3.64l22.737-96.637c4.784 1.01 9.595 1.905 14.426 2.686-5.87 32.53-11.74 65.06-17.612 97.59M88.408 710.463c-4.275-8.055-8.337-16.31-12.176-24.77l188.02-93.284c2.203 4.85 4.53 9.583 6.983 14.2L88.406 710.466"/><path fill="#B86E64" d="M262.492 501.193c.544 5.628 1.237 11.15 2.072 16.564l7.398-1.405c-.81-5.26-1.483-10.617-2.01-16.08l-7.46.92"/><path d="M262.492 501.193c.544 5.628 1.237 11.15 2.072 16.564l7.398-1.405c-.81-5.26-1.483-10.617-2.01-16.08l-7.46.92z" fill="none"/><path fill="#B86E64" d="M284.373 585.198c2.022 4.452 4.167 8.8 6.42 13.04 2.21-1.26 4.42-2.518 6.628-3.773-2.186-4.116-4.267-8.334-6.23-12.655-2.272 1.128-4.544 2.258-6.816 3.388"/><path d="M284.373 585.198c2.022 4.452 4.167 8.8 6.42 13.04 2.21-1.26 4.42-2.518 6.628-3.773-2.186-4.116-4.267-8.334-6.23-12.655-2.272 1.128-4.544 2.258-6.816 3.388z" fill="none"/><path fill="#B86E64" d="M328.06 649.603c3.16 3.275 6.41 6.445 9.737 9.513l5.246-5.56c-3.23-2.98-6.384-6.056-9.45-9.234-1.844 1.76-3.69 3.52-5.532 5.28"/><path d="M328.06 649.603c3.16 3.275 6.41 6.445 9.737 9.513l5.246-5.56c-3.23-2.98-6.384-6.056-9.45-9.234-1.844 1.76-3.69 3.52-5.532 5.28z" fill="none"/><path fill="#B86E64" d="M387.798 694.41c3.95 2.1 7.956 4.094 12.012 5.98 1.14-2.258 2.282-4.516 3.424-6.77-3.935-1.835-7.822-3.773-11.657-5.812l-3.78 6.602"/><path d="M387.798 694.41c3.95 2.1 7.956 4.094 12.012 5.98 1.14-2.258 2.282-4.516 3.424-6.77-3.935-1.835-7.822-3.773-11.657-5.812l-3.78 6.602z" fill="none"/><path fill="#B86E64" d="M457.822 719.615c4.396.925 8.813 1.743 13.25 2.456.445-2.47.89-4.94 1.33-7.41-4.307-.69-8.596-1.485-12.86-2.382l-1.722 7.338"/><path d="M457.822 719.615c4.396.925 8.813 1.743 13.25 2.456.445-2.47.89-4.94 1.33-7.41-4.307-.69-8.596-1.485-12.86-2.382l-1.722 7.338h.002z" fill="none"/><path fill="#B86E64" d="M532.373 725.222c4.492-.25 8.98-.606 13.456-1.07l-.87-7.474c-4.346.45-8.7.798-13.06 1.04l.472 7.504"/><path d="M532.373 725.222c4.492-.25 8.98-.606 13.456-1.07l-.87-7.474c-4.346.45-8.7.798-13.06 1.04l.472 7.504z" fill="none"/><path fill="#B86E64" d="M605.692 711.23c4.247-1.432 8.456-2.96 12.622-4.602l-2.997-6.96c-4.043 1.593-8.13 3.08-12.25 4.467l2.625 7.094"/><path d="M605.692 711.23c4.247-1.432 8.456-2.96 12.622-4.602l-2.997-6.96c-4.043 1.593-8.13 3.08-12.25 4.467l2.625 7.094z" fill="none"/><path fill="#B86E64" d="M672.018 677.635c3.655-2.603 7.24-5.31 10.752-8.127l-4.89-5.866c-3.41 2.732-6.89 5.362-10.438 7.89l4.576 6.103z"/><path d="M672.018 677.635c3.655-2.603 7.24-5.31 10.752-8.127l-4.89-5.866c-3.41 2.732-6.89 5.362-10.438 7.89l4.576 6.103z" fill="none"/><path fill="#B86E64" d="M249.06 502.667c.567 5.93 1.29 11.75 2.167 17.456l8.034-1.52c-.85-5.535-1.55-11.18-2.102-16.93-2.7.334-5.4.664-8.098.994"/><path d="M249.06 502.667c.567 5.93 1.29 11.75 2.167 17.456l8.034-1.52c-.85-5.535-1.55-11.18-2.102-16.93-2.7.334-5.4.664-8.098.994z" fill="none"/><path fill="#B86E64" d="M272.04 591.183c2.13 4.69 4.382 9.27 6.753 13.74l7.2-4.09c-2.3-4.333-4.486-8.773-6.55-13.324l-7.403 3.672"/><path d="M272.04 591.183c2.13 4.69 4.382 9.27 6.753 13.74l7.2-4.09c-2.3-4.333-4.486-8.773-6.55-13.324l-7.403 3.672z" fill="none"/><path fill="#B86E64" d="M318.006 659.055c3.326 3.452 6.744 6.794 10.247 10.024l5.7-6.036c-3.398-3.132-6.714-6.372-9.94-9.72l-6.007 5.73"/><path d="M318.006 659.055c3.326 3.452 6.744 6.794 10.247 10.024l5.7-6.036c-3.398-3.132-6.714-6.372-9.94-9.72l-6.007 5.73z" fill="none"/><path fill="#B86E64" d="M380.89 706.28c4.16 2.213 8.377 4.313 12.647 6.307l3.724-7.353c-4.14-1.935-8.23-3.973-12.264-6.118-1.37 2.387-2.734 4.772-4.104 7.16"/><path d="M380.89 706.28c4.16 2.213 8.377 4.313 12.647 6.307l3.724-7.353c-4.14-1.935-8.23-3.973-12.264-6.118-1.37 2.387-2.734 4.772-4.104 7.16v.003z" fill="none"/><path fill="#B86E64" d="M454.62 732.857c4.63.976 9.282 1.84 13.956 2.592l1.447-8.048c-4.53-.73-9.043-1.567-13.53-2.515l-1.87 7.97"/><path d="M454.62 732.857c4.63.976 9.282 1.84 13.956 2.592l1.447-8.048c-4.53-.73-9.043-1.567-13.53-2.515l-1.87 7.97h-.003z" fill="none"/><path fill="#B86E64" d="M533.13 738.79c4.73-.264 9.458-.64 14.17-1.125-.31-2.704-.624-5.408-.938-8.112-4.57.474-9.15.835-13.743 1.094l.51 8.143"/><path d="M533.13 738.79c4.73-.264 9.458-.64 14.17-1.125-.31-2.704-.624-5.408-.938-8.112-4.57.474-9.15.835-13.743 1.094l.51 8.143z" fill="none"/><path fill="#B86E64" d="M610.35 724.075c4.473-1.502 8.906-3.115 13.293-4.84-1.084-2.52-2.168-5.037-3.25-7.557-4.256 1.675-8.555 3.237-12.892 4.694l2.85 7.703"/><path d="M610.35 724.075c4.473-1.502 8.906-3.115 13.293-4.84-1.084-2.52-2.168-5.037-3.25-7.557-4.256 1.675-8.555 3.237-12.892 4.694l2.85 7.703z" fill="none"/><path fill="#B86E64" d="M680.208 688.715c3.85-2.74 7.626-5.593 11.323-8.557l-5.31-6.37c-3.585 2.875-7.25 5.64-10.98 8.3l4.97 6.627"/><path d="M680.208 688.715c3.85-2.74 7.626-5.593 11.323-8.557l-5.31-6.37c-3.585 2.875-7.25 5.64-10.98 8.3l4.97 6.627z" fill="none"/><path fill="#B86E64" d="M704.145 321.657c-3.162-3.278-6.41-6.45-9.74-9.517l-5.413 5.738c3.23 2.973 6.377 6.05 9.443 9.228l5.71-5.45"/><path d="M704.145 321.657c-3.162-3.278-6.41-6.45-9.74-9.517l-5.413 5.738c3.23 2.973 6.377 6.05 9.443 9.228l5.71-5.45z" fill="none"/><path fill="#B86E64" d="M644.38 276.83c-3.952-2.1-7.96-4.097-12.02-5.987l-3.53 6.99c3.934 1.83 7.82 3.767 11.65 5.804l3.9-6.808"/><path d="M644.38 276.83c-3.952-2.1-7.96-4.097-12.02-5.987l-3.53 6.99c3.934 1.83 7.82 3.767 11.65 5.804l3.9-6.808z" fill="none"/><path fill="#B86E64" d="M574.322 251.612c-4.396-.925-8.815-1.744-13.258-2.457l-1.372 7.646c4.308.694 8.594 1.488 12.857 2.385l1.77-7.572z"/><path d="M574.322 251.612c-4.396-.925-8.815-1.744-13.258-2.457l-1.372 7.646c4.308.694 8.594 1.488 12.857 2.385l1.77-7.572z" fill="none"/><path fill="#B86E64" d="M499.737 246.003c-4.496.25-8.983.61-13.462 1.073l.896 7.71c4.34-.45 8.695-.795 13.056-1.04l-.488-7.743z"/><path d="M499.737 246.003c-4.496.25-8.983.61-13.462 1.073l.896 7.71c4.34-.45 8.695-.795 13.056-1.04l-.488-7.743z" fill="none"/><path fill="#B86E64" d="M426.383 260.003c-4.25 1.428-8.46 2.962-12.627 4.603l3.092 7.18c4.04-1.59 8.124-3.078 12.244-4.464l-2.71-7.32"/><path d="M426.383 260.003c-4.25 1.428-8.46 2.962-12.627 4.603l3.092 7.18c4.04-1.59 8.124-3.078 12.244-4.464l-2.71-7.32z" fill="none"/><path fill="#B86E64" d="M360.026 293.612c-3.657 2.604-7.244 5.315-10.757 8.132l5.044 6.05c3.407-2.73 6.885-5.36 10.43-7.885l-4.72-6.3z"/><path d="M360.026 293.612c-3.657 2.604-7.244 5.315-10.757 8.132l5.044 6.05c3.407-2.73 6.885-5.36 10.43-7.885l-4.72-6.3z" fill="none"/><path fill="#B86E64" d="M306.428 346.83c-2.718 3.78-5.336 7.67-7.848 11.66l6.58 4.334c2.437-3.874 4.975-7.643 7.61-11.31-2.115-1.56-4.228-3.125-6.342-4.685"/><path d="M306.428 346.83c-2.718 3.78-5.336 7.67-7.848 11.66l6.58 4.334c2.437-3.874 4.975-7.643 7.61-11.31-2.115-1.56-4.228-3.125-6.342-4.685z" fill="none"/><path fill="#B86E64" d="M271.35 419.655c-1.434 4.96-2.736 10.02-3.902 15.19l7.526 2.02c1.13-5.012 2.395-9.923 3.785-14.73-2.47-.827-4.94-1.652-7.41-2.48"/><path d="M271.35 419.655c-1.434 4.96-2.736 10.02-3.902 15.19l7.526 2.02c1.13-5.012 2.395-9.923 3.785-14.73-2.47-.827-4.94-1.652-7.41-2.48z" fill="none"/><path fill="#B86E64" d="M714.995 310.383c-3.326-3.453-6.744-6.795-10.247-10.025l-5.7 6.034c3.396 3.132 6.712 6.372 9.937 9.72l6.01-5.73"/><path d="M714.995 310.383c-3.326-3.453-6.744-6.795-10.247-10.025l-5.7 6.034c3.396 3.132 6.712 6.372 9.937 9.72l6.01-5.73z" fill="none"/><path fill="#B86E64" d="M652.11 263.157c-4.16-2.214-8.376-4.316-12.646-6.308-1.24 2.45-2.48 4.9-3.724 7.35 4.14 1.93 8.23 3.97 12.265 6.117l4.105-7.16"/><path d="M652.11 263.157c-4.16-2.214-8.376-4.316-12.646-6.308-1.24 2.45-2.48 4.9-3.724 7.35 4.14 1.93 8.23 3.97 12.265 6.117l4.105-7.16z" fill="none"/><path fill="#B86E64" d="M578.38 236.578c-4.628-.975-9.28-1.84-13.955-2.59l-1.447 8.044c4.532.73 9.044 1.567 13.532 2.513l1.87-7.967"/><path d="M578.38 236.578c-4.628-.975-9.28-1.84-13.955-2.59l-1.447 8.044c4.532.73 9.044 1.567 13.532 2.513l1.87-7.967z" fill="none"/><path fill="#B86E64" d="M499.87 230.645c-4.73.264-9.46.64-14.172 1.126l.94 8.114c4.57-.472 9.15-.835 13.74-1.09-.17-2.715-.34-5.432-.508-8.148"/><path d="M499.87 230.645c-4.73.264-9.46.64-14.172 1.126l.94 8.114c4.57-.472 9.15-.835 13.74-1.09-.17-2.715-.34-5.432-.508-8.148z" fill="none"/><path fill="#B86E64" d="M422.65 245.36c-4.473 1.502-8.905 3.116-13.293 4.84 1.084 2.52 2.168 5.037 3.25 7.555 4.256-1.673 8.556-3.238 12.894-4.694l-2.85-7.7z"/><path d="M422.65 245.36c-4.473 1.502-8.905 3.116-13.293 4.84 1.084 2.52 2.168 5.037 3.25 7.555 4.256-1.673 8.556-3.238 12.894-4.694l-2.85-7.7z" fill="none"/><path fill="#B86E64" d="M352.793 280.72c-3.85 2.74-7.626 5.594-11.324 8.558 1.77 2.123 3.54 4.246 5.306 6.37 3.587-2.875 7.25-5.64 10.982-8.3l-4.967-6.628"/><path d="M352.793 280.72c-3.85 2.74-7.626 5.594-11.324 8.558 1.77 2.123 3.54 4.246 5.306 6.37 3.587-2.875 7.25-5.64 10.982-8.3l-4.967-6.628z" fill="none"/><path fill="#B86E64" d="M296.362 336.725c-2.86 3.98-5.617 8.072-8.262 12.274l6.926 4.56c2.565-4.077 5.238-8.044 8.015-11.9l-6.677-4.936"/><path d="M296.362 336.725c-2.86 3.98-5.617 8.072-8.262 12.274l6.926 4.56c2.565-4.077 5.238-8.044 8.015-11.9l-6.677-4.936z" fill="none"/><path fill="#B86E64" d="M259.433 413.378c-1.51 5.22-2.88 10.548-4.11 15.99l7.92 2.125c1.19-5.277 2.52-10.446 3.985-15.506l-7.795-2.61"/><path d="M259.433 413.378c-1.51 5.22-2.88 10.548-4.11 15.99l7.92 2.125c1.19-5.277 2.52-10.446 3.985-15.506l-7.795-2.61z" fill="none"/><path fill="#B86E64" d="M728.43 302.35c-3.547-3.686-7.19-7.25-10.927-10.7l-6.086 6.437c3.62 3.343 7.154 6.8 10.595 10.374l6.417-6.11"/><path d="M728.43 302.35c-3.547-3.686-7.19-7.25-10.927-10.7l-6.086 6.437c3.62 3.343 7.154 6.8 10.595 10.374l6.417-6.11z" fill="none"/><path fill="#B86E64" d="M742.507 110.6c-6.92-3.69-13.94-7.196-21.047-10.515-25.85 50.987-51.697 101.973-77.544 152.96 4.415 2.062 8.775 4.24 13.075 6.533l85.518-148.98"/><path d="M742.507 110.6c-6.92-3.69-13.94-7.196-21.047-10.515-25.85 50.987-51.697 101.973-77.544 152.96 4.415 2.062 8.775 4.24 13.075 6.533l85.518-148.98z" fill="none"/><path fill="#B86E64" d="M490.723 82.38c-7.42.408-14.83.99-22.217 1.745l16.383 142.863c4.874-.5 9.762-.882 14.66-1.15-2.947-47.82-5.888-95.638-8.828-143.457"/><path d="M490.723 82.38c-7.42.408-14.83.99-22.217 1.745l16.383 142.863c4.874-.5 9.762-.882 14.66-1.15-2.947-47.82-5.888-95.638-8.828-143.457z" fill="none"/><path fill="#B86E64" d="M330.803 0c-8.866 2.968-17.656 6.156-26.354 9.565l101.454 236.408c4.54-1.78 9.127-3.443 13.755-4.992C390.04 160.656 360.422 80.33 330.802 0"/><path d="M330.803 0c-8.866 2.968-17.656 6.156-26.354 9.565l101.454 236.408c4.54-1.78 9.127-3.443 13.755-4.992C390.04 160.656 360.422 80.33 330.802 0z" fill="none"/><path fill="#B86E64" d="M211.12 95.132c-7.19 5.106-14.25 10.42-21.16 15.942l145.672 175.223c3.83-3.06 7.74-6.003 11.725-8.833L211.12 95.132"/><path d="M211.12 95.132c-7.19 5.106-14.25 10.42-21.16 15.942l145.672 175.223c3.83-3.06 7.74-6.003 11.725-8.833L211.12 95.132z" fill="none"/><path fill="#B86E64" d="M118.98 209.38c-5.18 7.177-10.168 14.555-14.957 22.133l176.32 116.456c2.743-4.34 5.6-8.568 8.564-12.677L118.98 209.38"/><path d="M118.98 209.38c-5.18 7.177-10.168 14.555-14.957 22.133l176.32 116.456c2.743-4.34 5.6-8.568 8.564-12.677L118.98 209.38z" fill="none"/><path fill="#B86E64" d="M13.083 334.493c-2.97 10.202-5.673 20.622-8.095 31.26 80.44 21.74 160.878 43.484 241.317 65.228 1.28-5.62 2.707-11.125 4.277-16.517-79.168-26.656-158.334-53.312-237.5-79.97"/><path d="M13.083 334.493c-2.97 10.202-5.673 20.622-8.095 31.26 80.44 21.74 160.878 43.484 241.317 65.228 1.28-5.62 2.707-11.125 4.277-16.517-79.168-26.656-158.334-53.312-237.5-79.97z" fill="none"/><path fill="#B86E64" d="M661.812 719.476c-4.44 2.37-8.944 4.615-13.504 6.744l-4.222-8.326c4.412-2.062 8.77-4.237 13.07-6.528 1.55 2.703 3.104 5.406 4.656 8.11"/><path d="M661.812 719.476c-4.44 2.37-8.944 4.615-13.504 6.744l-4.222-8.326c4.412-2.062 8.77-4.237 13.07-6.528 1.55 2.703 3.104 5.406 4.656 8.11z" fill="none"/><path fill="#B86E64" d="M628.618 941.173c-8.342 1.767-16.73 3.328-25.154 4.69L566.54 741.577c4.83-.78 9.64-1.678 14.424-2.69l47.654 202.286"/><path d="M628.618 941.173c-8.342 1.767-16.73 3.328-25.154 4.69L566.54 741.577c4.83-.78 9.64-1.678 14.424-2.69l47.654 202.286z" fill="none"/><path fill="#B86E64" d="M340.463 945.61c-8.42-2.818-16.767-5.846-25.024-9.08l90.792-211.57c4.54 1.78 9.123 3.44 13.75 4.99-26.508 71.885-53.015 143.772-79.52 215.66"/><path d="M340.463 945.61c-8.42-2.818-16.767-5.846-25.024-9.08l90.792-211.57c4.54 1.78 9.123 3.44 13.75 4.99-26.508 71.885-53.015 143.772-79.52 215.66z" fill="none"/><path fill="#B86E64" d="M270.4 796.98c-5.803-4.12-11.497-8.408-17.073-12.863l82.68-99.453c3.83 3.058 7.736 6 11.72 8.828L270.4 796.982"/><path d="M270.4 796.98c-5.803-4.12-11.497-8.408-17.073-12.863l82.68-99.453c3.83 3.058 7.736 6 11.72 8.828L270.4 796.982v-.003z" fill="none"/><path fill="#B86E64" d="M123.058 758.892c-5.13-7.106-10.07-14.413-14.813-21.92l172.51-113.94c2.74 4.34 5.596 8.56 8.56 12.668L123.058 758.892z"/><path d="M123.058 758.892c-5.13-7.106-10.07-14.413-14.813-21.92l172.51-113.94c2.74 4.34 5.596 8.56 8.56 12.668L123.058 758.892z" fill="none"/><path fill="#B86E64" d="M241.667 559.73c-1.625-5.576-3.104-11.27-4.427-17.085l9.498-2.567c1.278 5.616 2.705 11.118 4.274 16.505l-9.345 3.147"/><path d="M241.667 559.73c-1.625-5.576-3.104-11.27-4.427-17.085l9.498-2.567c1.278 5.616 2.705 11.118 4.274 16.505l-9.345 3.147z" fill="none"/><text transform="translate(404.831 583.002)" fill="#3A53A4" font-family="'Cambria'" font-size="370">µ</text><text transform="translate(606.091 583.002)" font-family="'TimesNewRomanPSMT'" font-size="360">Bio</text><text transform="translate(1126.291 583.002)" fill="#894A9D" font-family="'TimesNewRomanPSMT'" font-size="360">me</text></svg>